<?xml version="1.0" encoding="iso-8859-1"?>
<!-- Generator: Adobe Illustrator 19.0.0, SVG Export Plug-In . SVG Version: 6.00 Build 0)  -->
<svg version="1.1" id="Capa_1" xmlns="http://www.w3.org/2000/svg" xmlns:xlink="http://www.w3.org/1999/xlink" x="0px" y="0px"
	 viewBox="0 0 496.485 496.485" style="enable-background:new 0 0 496.485 496.485;" xml:space="preserve">
<path style="fill:#FFFFFF;" d="M7.758,349.091v55.855c0,13.188,10.085,23.273,23.273,23.273h434.424
	c13.188,0,23.273-10.085,23.273-23.273v-55.855H7.758z"/>
<path style="fill:#193651;" d="M465.455,435.976H31.03c-17.067,0-31.03-13.964-31.03-31.03v-55.855c0-4.655,3.103-7.758,7.758-7.758
	h480.97c4.655,0,7.758,3.103,7.758,7.758v55.855C496.485,422.012,482.521,435.976,465.455,435.976z M15.515,356.849v48.097
	c0,8.533,6.982,15.515,15.515,15.515h434.424c8.533,0,15.515-6.982,15.515-15.515v-48.097H15.515z"/>
<path style="fill:#FFFFFF;" d="M465.455,7.758H31.03c-13.188,0-23.273,10.085-23.273,23.273v318.061h480.97V31.03
	C488.727,17.842,478.642,7.758,465.455,7.758z"/>
<path style="fill:#193651;" d="M488.727,356.849H7.758c-4.655,0-7.758-3.103-7.758-7.758V31.03C0,13.964,13.964,0,31.03,0h434.424
	c17.067,0,31.03,13.964,31.03,31.03v318.061C496.485,352.97,493.382,356.849,488.727,356.849z M15.515,341.333H480.97V31.03
	c0-8.533-6.982-15.515-15.515-15.515H31.03c-8.533,0-15.515,6.982-15.515,15.515V341.333z"/>
<path style="fill:#CFD0D1;" d="M38.788,108.606v186.182c0,13.188,10.085,23.273,23.273,23.273h310.303V108.606H38.788z"/>
<path style="fill:#2EA2DB;" d="M349.091,38.788H62.061c-13.188,0-23.273,10.085-23.273,23.273v46.545h333.576V62.061
	C372.364,48.873,362.279,38.788,349.091,38.788z"/>
<polygon style="fill:#E1E6E9;" points="308.752,428.218 187.733,428.218 167.564,488.727 328.921,488.727 "/>
<g>
	<path style="fill:#193651;" d="M328.921,496.485H167.564c-2.327,0-4.655-1.551-6.206-3.103c-1.552-2.327-1.552-4.655-0.776-6.982
		l20.17-60.509c0.776-3.103,3.879-5.43,6.982-5.43h121.018c3.103,0,6.206,2.327,6.982,5.43l20.17,60.509
		c0.776,2.327,0,4.655-0.776,6.982C333.576,494.933,331.249,496.485,328.921,496.485z M178.424,480.97h139.636l-14.739-44.994
		H193.164L178.424,480.97z"/>
	<path style="fill:#193651;" d="M356.073,496.485H140.412c-4.655,0-7.758-3.103-7.758-7.758s3.103-7.758,7.758-7.758h214.885
		c4.655,0,7.758,3.103,7.758,7.758C363.83,493.382,359.952,496.485,356.073,496.485z"/>
</g>
<g>
	<circle style="fill:#CFD0D1;" cx="248.242" cy="388.655" r="17.067"/>
	<circle style="fill:#CFD0D1;" cx="193.939" cy="388.655" r="10.861"/>
	<circle style="fill:#CFD0D1;" cx="302.545" cy="388.655" r="10.861"/>
</g>
<g>
	<rect x="82.23" y="65.939" style="fill:#193651;" width="15.515" height="15.515"/>
	<rect x="124.121" y="65.939" style="fill:#193651;" width="15.515" height="15.515"/>
	<rect x="166.012" y="65.939" style="fill:#193651;" width="15.515" height="15.515"/>
</g>
<path style="fill:#F16051;" d="M372.364,310.303c-43.442,0-79.127-35.685-79.127-79.127s35.685-79.127,79.127-79.127
	s79.127,35.685,79.127,79.127S415.806,310.303,372.364,310.303z"/>
<path style="fill:#193651;" d="M372.364,318.061c-48.097,0-86.885-38.788-86.885-86.885s38.788-86.885,86.885-86.885
	s86.885,38.788,86.885,86.885C459.249,278.497,420.461,318.061,372.364,318.061z M372.364,159.03
	c-39.564,0-71.37,31.806-71.37,71.37s31.806,71.37,71.37,71.37s71.37-31.806,71.37-71.37
	C443.733,191.612,411.927,159.03,372.364,159.03z"/>
<circle style="fill:#FFFFFF;" cx="372.364" cy="231.176" r="52.752"/>
<polygon style="fill:#193651;" points="364.606,256 339.006,231.176 348.315,221.091 364.606,237.382 396.412,205.576 
	405.721,214.885 "/>
<g>
	<rect x="73.697" y="138.861" style="fill:#FFFFFF;" width="33.358" height="33.358"/>
	<rect x="126.448" y="138.861" style="fill:#FFFFFF;" width="138.085" height="10.085"/>
	<rect x="126.448" y="162.133" style="fill:#FFFFFF;" width="69.042" height="10.085"/>
	<rect x="126.448" y="193.164" style="fill:#FFFFFF;" width="138.085" height="10.085"/>
	<rect x="126.448" y="216.436" style="fill:#FFFFFF;" width="69.042" height="10.085"/>
	<rect x="126.448" y="246.691" style="fill:#FFFFFF;" width="138.085" height="10.085"/>
	<rect x="126.448" y="269.964" style="fill:#FFFFFF;" width="69.042" height="10.085"/>
	<rect x="73.697" y="193.164" style="fill:#FFFFFF;" width="33.358" height="33.358"/>
	<rect x="73.697" y="246.691" style="fill:#FFFFFF;" width="33.358" height="33.358"/>
</g>
<g>
</g>
<g>
</g>
<g>
</g>
<g>
</g>
<g>
</g>
<g>
</g>
<g>
</g>
<g>
</g>
<g>
</g>
<g>
</g>
<g>
</g>
<g>
</g>
<g>
</g>
<g>
</g>
<g>
</g>
</svg>
