<?xml version="1.0"?>
<svg xmlns="http://www.w3.org/2000/svg" xmlns:xlink="http://www.w3.org/1999/xlink" xmlns:svgjs="http://svgjs.com/svgjs" version="1.1" width="512" height="512" x="0" y="0" viewBox="0 0 511.998 511.998" style="enable-background:new 0 0 512 512" xml:space="preserve" class=""><g>
<g xmlns="http://www.w3.org/2000/svg">
	<g>
		<path d="M486.998,8.93H25.001C11.216,8.93,0,20.145,0,33.93c0,13.786,11.216,25.002,25.001,25.002h220.147v16.962L176.4,120.145    c-0.851,0.178-1.689,0.469-2.495,0.88l-42.609,21.746c-0.022,0.012-0.044,0.025-0.066,0.038c-0.017,0.008-0.035,0.015-0.052,0.023    l-77.803,41.025c-3.898,2.056-5.992,6.422-5.153,10.749l13.564,69.98c0.598,3.081,2.608,5.704,5.428,7.082    c1.386,0.677,2.888,1.015,4.39,1.015c1.555,0,3.109-0.362,4.533-1.086l67.341-34.244l7.643,36.683L98.681,461.16    c-2.961,10.565-1.187,21.203,4.867,29.186c5.558,7.33,14.083,11.533,23.389,11.533c4.052,0,8.146-0.789,12.171-2.347l1.809-0.7    c8.824-3.423,15.199-5.895,19.784-5.895c1.674,0,3.832,0.262,7.146,2.209c7.469,4.388,15.674,6.708,23.73,6.708    c5.571,0,10.8-1.115,15.123-3.225l0.393-0.191c4.331-2.117,12.393-6.058,19.566-6.058c2.159,0,3.968,0.359,5.525,1.098    c6.029,2.861,14.609,4.502,23.54,4.503c0.001,0,0.001,0,0.001,0c5.269,0,15.231-0.621,22.784-4.769    c0.009-0.005,0.918-0.457,3.526-0.457c7.838,0,19.2,3.891,23.266,5.874c4.321,2.109,9.551,3.225,15.122,3.225    c8.057,0,16.263-2.32,23.73-6.708c2.095-1.23,4.178-1.779,6.752-1.779c6.086,0,14.025,3.077,24.076,6.975l1.828,0.708    c3.46,1.339,6.946,2.018,10.36,2.018c8.276,0,15.817-3.934,21.233-11.075c5.92-7.807,8.387-18.443,6.138-26.467l-53.662-191.488    l7.643-36.683l67.342,34.244c1.423,0.724,2.977,1.086,4.532,1.086c1.502,0,3.004-0.338,4.39-1.015    c2.82-1.378,4.83-4.001,5.428-7.082l13.564-69.98c0.839-4.327-1.255-8.693-5.153-10.749l-77.803-41.025    c-0.017-0.009-0.034-0.016-0.052-0.023c-0.022-0.012-0.043-0.026-0.066-0.038l-42.244-21.56l-73.312-45.429V58.932h221.85    c13.785,0,25.001-11.216,25.001-25.002C511.999,20.145,500.783,8.93,486.998,8.93z M78.896,247.757l-9.628-49.67l59.491-31.37    l10.49,50.35L78.896,247.757z M383.239,166.717l59.491,31.37l-9.627,49.67l-60.355-30.69L383.239,166.717z M25.001,38.932    C22.29,38.932,20,36.641,20,33.93c0-2.71,2.29-5,5.001-5h220.147v10.002H25.001z M364.809,157.113l-12.684,60.885    c-0.752,1.544-1.07,3.188-1,4.797l-8.717,41.841l-20.851-0.007h-0.003c-5.521,0-9.998,4.476-10,9.997    c-0.002,5.522,4.474,10.001,9.997,10.003l21.527,0.007l52.204,186.285c0.376,1.344-0.26,5.613-2.816,8.985    c-1.591,2.098-3.372,3.16-5.297,3.16c-0.936,0-1.994-0.226-3.143-0.67l-1.815-0.703c-11.525-4.469-21.479-8.327-31.306-8.327    c-6.165,0-11.688,1.483-16.883,4.535c-5.559,3.266-10.464,3.951-13.6,3.951c-3.517,0-5.611-0.837-6.35-1.197    c-6.259-3.055-20.492-7.9-32.038-7.9c-5.191,0-9.614,0.983-13.147,2.923c-1.934,1.063-6.541,2.302-13.162,2.302    c0,0-0.001,0-0.002,0c-5.8,0-11.675-1.009-14.969-2.572c-4.237-2.009-8.98-3.027-14.097-3.027c-11.801,0-22.978,5.463-28.35,8.089    l-0.381,0.186c-0.738,0.36-2.835,1.197-6.352,1.197c-3.136,0-8.04-0.685-13.6-3.952c-5.688-3.34-11.339-4.965-17.276-4.965    c-8.327,0-16.166,3.041-27.016,7.248l-1.794,0.695c-5.019,1.941-9.721,0.924-12.406-2.618c-2.239-2.953-2.803-7.219-1.546-11.705    l53.098-189.473c0.433-1.543,0.488-3.169,0.161-4.738l-10.323-49.55c0.07-1.608-0.248-3.253-1-4.797l-12.684-60.885l28.309-14.448    l31.595,42.141c1.889,2.519,4.853,4.001,8.001,4.001h81.81c3.148,0,6.112-1.482,8.001-4.001l31.595-42.141L364.809,157.113z     M318.992,132.676l-27.089,36.131h-71.808l-26.803-35.75l61.956-39.88L318.992,132.676z M486.998,38.932h-221.85V28.93h221.85    c2.711,0,5.001,2.29,5.001,5C491.999,36.641,489.709,38.932,486.998,38.932z" fill="#ffffff" data-original="#000000" style="" class=""/>
	</g>
</g>
<g xmlns="http://www.w3.org/2000/svg">
	<g>
		<path d="M228.405,360.415h-40.221c-10.149,0-18.407,8.257-18.407,18.406v37.297c0,10.149,8.258,18.406,18.407,18.406h40.221    c10.149,0,18.407-8.257,18.407-18.406v-37.297C246.813,368.671,238.555,360.415,228.405,360.415z M226.813,414.524h-37.035    v-34.109h37.035V414.524z" fill="#ffffff" data-original="#000000" style="" class=""/>
	</g>
</g>
<g xmlns="http://www.w3.org/2000/svg">
	<g>
		<path d="M322.363,361.876h-40.221c-10.149-0.001-18.406,8.256-18.406,18.406v37.297c0,10.149,8.257,18.406,18.406,18.406h40.221    c10.15,0,18.408-8.257,18.408-18.406v-37.297C340.771,370.132,332.513,361.876,322.363,361.876z M320.771,415.984h-37.035v-34.109    h37.035V415.984z" fill="#ffffff" data-original="#000000" style="" class=""/>
	</g>
</g>
<g xmlns="http://www.w3.org/2000/svg">
	<g>
		<path d="M292.133,264.6h-0.024l-0.823,0.002c-5.523,0.013-9.989,4.501-9.977,10.023c0.012,5.516,4.487,9.977,9.999,9.977h0.024    l0.823-0.002c5.523-0.013,9.989-4.501,9.977-10.023C302.119,269.061,297.645,264.6,292.133,264.6z" fill="#ffffff" data-original="#000000" style="" class=""/>
	</g>
</g>
<g xmlns="http://www.w3.org/2000/svg">
</g>
<g xmlns="http://www.w3.org/2000/svg">
</g>
<g xmlns="http://www.w3.org/2000/svg">
</g>
<g xmlns="http://www.w3.org/2000/svg">
</g>
<g xmlns="http://www.w3.org/2000/svg">
</g>
<g xmlns="http://www.w3.org/2000/svg">
</g>
<g xmlns="http://www.w3.org/2000/svg">
</g>
<g xmlns="http://www.w3.org/2000/svg">
</g>
<g xmlns="http://www.w3.org/2000/svg">
</g>
<g xmlns="http://www.w3.org/2000/svg">
</g>
<g xmlns="http://www.w3.org/2000/svg">
</g>
<g xmlns="http://www.w3.org/2000/svg">
</g>
<g xmlns="http://www.w3.org/2000/svg">
</g>
<g xmlns="http://www.w3.org/2000/svg">
</g>
<g xmlns="http://www.w3.org/2000/svg">
</g>
</g></svg>
