<?xml version="1.0"?>
<svg xmlns="http://www.w3.org/2000/svg" id="Capa_1" enable-background="new 0 0 512 512" height="512px" viewBox="0 0 512 512" width="512px"><g><path d="m330.991 221.482 174.977 153.384c3.847-7.505 6.032-15.997 6.032-24.995v-264c0-4.57-.57-9.008-1.625-13.256z" data-original="#000000" class="active-path" data-old_color="#000000" fill="#1E211F"/><path d="m181.054 221.443-179.414-148.891c-1.066 4.267-1.64 8.727-1.64 13.32v264c0 8.997 2.186 17.489 6.032 24.995z" data-original="#000000" class="active-path" data-old_color="#000000" fill="#1E211F"/><path d="m307.612 240.883-14.281 11.852c-10.802 8.964-24.044 13.447-37.285 13.447s-26.482-4.482-37.285-13.447l-14.328-11.891-177.984 156.02c8.328 5.079 18.104 8.008 28.551 8.008h129.514c1.581 0 3.084.759 4.023 2.032l47.253 64.063c4.735 6.421 12.026 10.124 20.004 10.161h.12c7.932 0 15.209-3.632 19.979-9.977l48.325-64.284c.939-1.25 2.434-1.996 3.997-1.996h128.785c10.448 0 20.223-2.929 28.551-8.008z" data-original="#000000" class="active-path" data-old_color="#000000" fill="#1E211F"/><path d="m237.919 229.649c10.503 8.717 25.751 8.716 36.254 0l220.952-183.363c-9.895-9.533-23.332-15.414-38.125-15.414h-402c-14.772 0-28.191 5.865-38.083 15.374z" data-original="#000000" class="active-path" data-old_color="#000000" fill="#1E211F"/></g> </svg>
