<?xml version="1.0"?>
<svg xmlns="http://www.w3.org/2000/svg" xmlns:xlink="http://www.w3.org/1999/xlink" xmlns:svgjs="http://svgjs.com/svgjs" version="1.1" width="512" height="512" x="0" y="0" viewBox="0 0 512 512" style="enable-background:new 0 0 512 512" xml:space="preserve" class=""><g><path xmlns="http://www.w3.org/2000/svg" d="m357 0c-37.589844 0-72.929688 13.183594-101 37.40625-28.070312-24.222656-63.410156-37.40625-101-37.40625-85.46875 0-155 69.53125-155 155 0 77.828125 24.605469 151.796875 71.15625 213.902344 22.390625 29.875 49.179688 55.964844 79.628906 77.546875 30.867188 21.875 64.777344 38.605469 100.789063 49.722656l4.425781 1.363281 4.425781-1.363281c36.011719-11.117187 69.921875-27.847656 100.789063-49.722656 30.449218-21.582031 57.238281-47.671875 79.628906-77.546875 46.550781-62.105469 71.15625-136.074219 71.15625-213.902344 0-85.46875-69.53125-155-155-155zm-101 466.105469c-135.378906-43.84375-226-168.28125-226-311.105469 0-68.925781 56.074219-125 125-125 34.351562 0 66.378906 13.652344 90.179688 38.445312l10.820312 11.273438 10.820312-11.273438c23.800782-24.792968 55.828126-38.445312 90.179688-38.445312 68.925781 0 125 56.074219 125 125 0 142.824219-90.621094 267.261719-226 311.105469zm0 0" fill="#333333" data-original="#000000" style=""/><path xmlns="http://www.w3.org/2000/svg" d="m256 293.917969c-25.363281 0-46-20.636719-46-46h-30c0 41.90625 34.09375 76 76 76s76-34.09375 76-76h-30c0 25.363281-20.636719 46-46 46zm0 0" fill="#333333" data-original="#000000" style=""/><path xmlns="http://www.w3.org/2000/svg" d="m180 172.917969h30v45h-30zm0 0" fill="#333333" data-original="#000000" style=""/><path xmlns="http://www.w3.org/2000/svg" d="m302 172.917969h30v45h-30zm0 0" fill="#333333" data-original="#000000" style=""/></g></svg>
