<?xml version="1.0"?>
<svg xmlns="http://www.w3.org/2000/svg" xmlns:xlink="http://www.w3.org/1999/xlink" xmlns:svgjs="http://svgjs.com/svgjs" version="1.1" width="512" height="512" x="0" y="0" viewBox="0 0 512 512" style="enable-background:new 0 0 512 512" xml:space="preserve" class=""><g><g xmlns="http://www.w3.org/2000/svg"><path d="m136 272c74.439 0 135-61.009 135-136s-60.561-136-135-136c-36.06 0-70.139 14.22-95.959 40.041s-40.041 59.899-40.041 95.959 14.22 70.139 40.041 95.959 59.899 40.041 95.959 40.041zm105-136c0 53.307-39.194 97.543-90.01 104.914v-32.494c17.459-6.193 30.01-22.866 30.01-42.42 0-24.813-20.187-45-45-45-8.271 0-15-6.729-15-15s6.729-15 15-15 15 6.729 15 15h30c0-19.555-12.541-36.228-30-42.42v-32.494c50.816 7.371 90 51.607 90 104.914zm-120-104.934v32.514c-17.459 6.192-30 22.865-30 42.42 0 24.813 20.187 45 45 45 8.271 0 15 6.729 15 15s-6.729 15-15 15-15-6.729-15-15h-30c0 19.555 12.542 36.228 30 42.42v32.514c-51.37-7.309-91-51.577-91-104.934s39.63-97.625 91-104.934z" fill="#ffffff" data-original="#000000" style="" class=""/><path d="m361 362h-120v60h-120v90h391v-210h-151zm30 30h91v30h-91zm-120 0h90v30h-90zm-30 90h-90v-30h90zm30 0v-30h90v30zm120 0v-30h91v30zm0-150h91v30h-91z" fill="#ffffff" data-original="#000000" style="" class=""/><path d="m379.692 208.446c46.333-57.657 74.105-114.842 88.412-149.597l14.48 28.959 26.832-13.417-36.708-73.415-73.416 36.708 13.416 26.833 25.789-12.895c-14.153 33.41-40.526 86.394-82.849 138.851-91.827 113.817-211.484 171.527-355.648 171.527v30c153.066 0 282.981-63.207 379.692-183.554z" fill="#ffffff" data-original="#000000" style="" class=""/></g></g></svg>
