<?xml version="1.0" encoding="iso-8859-1"?>
<!-- Generator: Adobe Illustrator 19.0.0, SVG Export Plug-In . SVG Version: 6.00 Build 0)  -->
<svg version="1.1" id="Capa_1" xmlns="http://www.w3.org/2000/svg" xmlns:xlink="http://www.w3.org/1999/xlink" x="0px" y="0px"
	 viewBox="0 0 512.001 512.001" style="enable-background:new 0 0 512.001 512.001;" xml:space="preserve">
<g>
	<g>
		<path d="M432.736,0H79.268c-8.284,0-15,6.716-15,15v437.816c0,3.978,1.581,7.794,4.393,10.607l44.184,44.184
			c5.858,5.858,15.355,5.858,21.214,0l33.577-33.577l33.575,33.577c2.813,2.813,6.628,4.394,10.606,4.394
			c3.978,0,7.794-1.58,10.607-4.394L256,474.03l33.577,33.577c2.813,2.813,6.629,4.394,10.606,4.394
			c3.978,0,7.794-1.58,10.607-4.394l33.576-33.577l33.576,33.577c2.93,2.929,6.767,4.394,10.607,4.394
			c3.838,0,7.678-1.465,10.606-4.394l44.184-44.184c2.813-2.813,4.394-6.628,4.394-10.607V15C447.736,6.716,441.019,0,432.736,0z
			 M240.999,112.671V95.334c0-8.284,6.717-15,15-15c8.285,0,15,6.716,15,15v17.133h17.135c8.283,0,15,6.716,15,15s-6.717,15-15,15
			H245.29c-9.447,0-17.133,7.686-17.133,17.133c0,9.448,7.686,17.135,17.133,17.135h21.423c25.989,0,47.134,21.143,47.134,47.133
			c0,24.543-18.86,44.756-42.848,46.93v17.337c0,8.284-6.715,15-15,15c-8.283,0-15-6.716-15-15V271h-17.133c-8.283,0-15-6.716-15-15
			s6.717-15,15-15h42.847c9.447,0,17.134-7.686,17.134-17.133c0-9.447-7.686-17.133-17.134-17.133H245.29
			c-25.99,0-47.133-21.145-47.133-47.135C198.158,135.057,217.015,114.846,240.999,112.671z M336.335,383.467H175.668
			c-8.284,0-15-6.716-15-15s6.716-15,15-15h160.667c8.283,0,15,6.716,15,15S344.618,383.467,336.335,383.467z"/>
	</g>
</g>
<g>
</g>
<g>
</g>
<g>
</g>
<g>
</g>
<g>
</g>
<g>
</g>
<g>
</g>
<g>
</g>
<g>
</g>
<g>
</g>
<g>
</g>
<g>
</g>
<g>
</g>
<g>
</g>
<g>
</g>
</svg>
