<?xml version="1.0"?>
<svg xmlns="http://www.w3.org/2000/svg" xmlns:xlink="http://www.w3.org/1999/xlink" version="1.1" id="Capa_1" x="0px" y="0px" viewBox="0 0 57 57" style="enable-background:new 0 0 57 57;" xml:space="preserve" width="512px" height="512px" class=""><g><circle style="fill:#F05453" cx="11" cy="28.456" r="9" data-original="#7383BF" class="active-path" data-old_color="#7383BF"/><circle style="fill:#F05453" cx="46" cy="48" r="9" data-original="#7383BF" class="active-path" data-old_color="#7383BF"/><circle style="fill:#F05453" cx="46" cy="9" r="9" data-original="#7383BF" class="active-path" data-old_color="#7383BF"/><g>
	<path style="fill:#6E6FCF" d="M19.017,25.36c0.176,0,0.354-0.046,0.515-0.144l18.908-11.388c0.473-0.285,0.625-0.899,0.34-1.372   c-0.285-0.474-0.899-0.627-1.373-0.341L18.5,23.504c-0.473,0.285-0.625,0.899-0.34,1.372C18.347,25.188,18.677,25.36,19.017,25.36z   " data-original="#424A60" class="" data-old_color="#424A60"/>
	<path style="fill:#6E6FCF" d="M38.442,43.171L19.535,31.694c-0.472-0.287-1.087-0.138-1.374,0.336   c-0.287,0.472-0.136,1.087,0.336,1.373L37.404,44.88c0.162,0.099,0.341,0.146,0.518,0.146c0.338,0,0.667-0.171,0.856-0.481   C39.065,44.072,38.915,43.457,38.442,43.171z" data-original="#424A60" class="" data-old_color="#424A60"/>
</g></g> </svg>
