<?xml version="1.0"?>
<svg xmlns="http://www.w3.org/2000/svg" xmlns:xlink="http://www.w3.org/1999/xlink" xmlns:svgjs="http://svgjs.com/svgjs" version="1.1" width="512" height="512" x="0" y="0" viewBox="0 0 480 480" style="enable-background:new 0 0 512 512" xml:space="preserve" class=""><g>
<g xmlns="http://www.w3.org/2000/svg">
	<g>
		<path d="M386.816,323.456l-69.984-14.016c-7.424-1.472-12.832-8.064-12.832-15.68v-16.064c4.608-6.4,8.928-14.944,13.408-23.872    c3.424-6.752,8.576-16.928,10.88-19.328c13.568-13.28,28.032-29.76,32.448-51.232c4-19.456,0-29.568-4.64-37.568    c0-15.648,0-44.288-5.44-64.928c-0.544-24.928-5.12-39.008-16.608-51.552c-8.128-8.768-20.096-10.816-29.696-12.448    c-3.808-0.64-9.024-1.536-10.848-2.528C276.896,5.056,260.032,0.512,239.392,0c-42.24,1.6-94.08,28.384-111.424,76.544    c-5.28,14.624-4.768,38.624-4.384,57.92l-0.448,11.232c-4.064,8-8.064,18.112-4.032,37.536    c4.416,21.568,18.88,38.016,32.384,51.232c2.336,2.432,7.552,12.672,11.008,19.424c4.544,8.896,8.896,17.44,13.504,23.84v16.032    c0,7.616-5.408,14.208-12.864,15.68l-69.984,14.016C48.448,332.384,16,371.968,16,417.568V448c0,17.632,14.368,32,32,32h384    c17.632,0,32-14.368,32-32v-30.432C464,371.968,431.552,332.384,386.816,323.456z M432,448H48v-30.432    c0-30.4,21.632-56.8,51.456-62.752l69.952-14.016C191.776,336.384,208,316.576,208,293.76V272c0-4.288-1.728-8.416-4.768-11.392    c-2.752-2.688-8.672-14.336-12.224-21.28c-6.016-11.776-11.2-21.952-17.12-27.712c-10.624-10.368-20.768-21.76-23.456-34.816    c-2.08-10.112-0.64-12.96,1.216-16.576c1.632-3.2,4.064-8,4.064-14.528l-0.16-11.872c-0.288-13.984-0.768-37.408,2.496-46.432    C170.464,52.96,209.856,33.152,239.584,32c14.656,0.384,26.176,3.424,38.4,10.24c6.592,3.648,14.272,4.928,21.024,6.08    c3.808,0.64,10.176,1.728,11.488,2.56c4.32,4.704,7.904,10.368,8.16,32.384c0,1.44,0.224,2.88,0.64,4.288    c4.768,16.352,4.768,44.576,4.768,58.144c0,6.528,2.464,11.328,4.064,14.528c1.856,3.616,3.296,6.464,1.216,16.608    c-2.656,12.992-12.864,24.416-23.456,34.784c-5.952,5.824-11.104,16-17.056,27.808c-3.456,6.912-9.312,18.496-12.032,21.152    c-3.072,3.008-4.8,7.136-4.8,11.424v21.76c0,22.816,16.224,42.624,38.592,47.072l69.984,14.016    c29.792,5.92,51.424,32.32,51.424,62.72V448z" fill="#333333" data-original="#000000" style="" class=""/>
	</g>
</g>
<g xmlns="http://www.w3.org/2000/svg">
</g>
<g xmlns="http://www.w3.org/2000/svg">
</g>
<g xmlns="http://www.w3.org/2000/svg">
</g>
<g xmlns="http://www.w3.org/2000/svg">
</g>
<g xmlns="http://www.w3.org/2000/svg">
</g>
<g xmlns="http://www.w3.org/2000/svg">
</g>
<g xmlns="http://www.w3.org/2000/svg">
</g>
<g xmlns="http://www.w3.org/2000/svg">
</g>
<g xmlns="http://www.w3.org/2000/svg">
</g>
<g xmlns="http://www.w3.org/2000/svg">
</g>
<g xmlns="http://www.w3.org/2000/svg">
</g>
<g xmlns="http://www.w3.org/2000/svg">
</g>
<g xmlns="http://www.w3.org/2000/svg">
</g>
<g xmlns="http://www.w3.org/2000/svg">
</g>
<g xmlns="http://www.w3.org/2000/svg">
</g>
</g></svg>
