<?xml version="1.0"?>
<svg xmlns="http://www.w3.org/2000/svg" xmlns:xlink="http://www.w3.org/1999/xlink" xmlns:svgjs="http://svgjs.com/svgjs" version="1.1" width="512" height="512" x="0" y="0" viewBox="0 0 480 480" style="enable-background:new 0 0 512 512" xml:space="preserve" class=""><g>
<g xmlns="http://www.w3.org/2000/svg">
	<g>
		<rect x="224" y="16" width="16" height="48" fill="#333333" data-original="#000000" style=""/>
	</g>
</g>
<g xmlns="http://www.w3.org/2000/svg">
	<g>
		<path d="M424,280v-80c0-4.418-3.582-8-8-8h-32v-40c0-4.418-3.582-8-8-8h-49.36c-5.152-31.404-25.655-58.157-54.64-71.296V48h-16    v30c-0.002,3.296,2.018,6.256,5.088,7.456c41.119,16.007,61.477,62.318,45.469,103.437c-0.407,1.044-0.835,2.08-1.285,3.107H250.4    c8.249-9.414,7.304-23.733-2.11-31.982c-1.483-1.3-3.13-2.4-4.898-3.274l-15.592-7.8c-3.376-1.686-4.745-5.789-3.059-9.165    c1.153-2.309,3.51-3.771,6.091-3.779h2.336c3.771,0.004,6.828,3.061,6.832,6.832V144h16v-1.168c-0.037-9.94-6.511-18.71-16-21.672    V112h-16v9.16c-11.999,3.732-18.7,16.484-14.968,28.483c1.844,5.929,6.032,10.847,11.592,13.613l15.592,7.8    c3.376,1.686,4.745,5.789,3.059,9.165c-1.156,2.314-3.52,3.777-6.107,3.779h-2.336c-3.771-0.004-6.828-3.061-6.832-6.832V176h-16    v1.168c0.019,5.457,2.007,10.724,5.6,14.832h-54.872c-4.452-10.08-6.744-20.981-6.728-32    c0.059-31.256,18.254-59.636,46.632-72.736c1.408-0.64,2.837-1.245,4.288-1.816C205.984,84.247,208,81.291,208,78V32h-16v40.712    h-0.048C163.133,86.033,142.729,112.7,137.408,144H64c-17.673,0-32,14.327-32,32v272c0,17.673,14.327,32,32,32h352    c4.418,0,8-3.582,8-8v-80c13.255,0,24-10.745,24-24v-64C448,290.745,437.255,280,424,280z M328,160h40v32h-45.6    C326.096,181.735,327.99,170.91,328,160z M64,464c-8.837,0-16-7.163-16-16V203.552c4.843,2.879,10.366,4.415,16,4.448V464z     M48,176c0-8.837,7.163-16,16-16h72c0.01,10.91,1.904,21.735,5.6,32H64C55.163,192,48,184.837,48,176z M408,464H80V208h328v72H304    c-30.928,0-56,25.072-56,56c0,30.928,25.072,56,56,56h104V464z M432,368c0,4.418-3.582,8-8,8H304c-22.091,0-40-17.909-40-40    c0-22.091,17.909-40,40-40h120c4.418,0,8,3.582,8,8V368z" fill="#333333" data-original="#000000" style=""/>
	</g>
</g>
<g xmlns="http://www.w3.org/2000/svg">
	<g>
		<path d="M304,312c-13.255,0-24,10.745-24,24s10.745,24,24,24s24-10.745,24-24S317.255,312,304,312z M304,344c-4.418,0-8-3.582-8-8    s3.582-8,8-8s8,3.582,8,8S308.418,344,304,344z" fill="#333333" data-original="#000000" style=""/>
	</g>
</g>
<g xmlns="http://www.w3.org/2000/svg">
	<g>
		<rect x="256" y="16" width="16" height="16" fill="#333333" data-original="#000000" style=""/>
	</g>
</g>
<g xmlns="http://www.w3.org/2000/svg">
	<g>
		<rect x="192" width="16" height="16" fill="#333333" data-original="#000000" style=""/>
	</g>
</g>
<g xmlns="http://www.w3.org/2000/svg">
	<g>
		<rect x="272" y="152" width="16" height="16" fill="#333333" data-original="#000000" style=""/>
	</g>
</g>
<g xmlns="http://www.w3.org/2000/svg">
	<g>
		<rect x="176" y="152" width="16" height="16" fill="#333333" data-original="#000000" style=""/>
	</g>
</g>
<g xmlns="http://www.w3.org/2000/svg">
</g>
<g xmlns="http://www.w3.org/2000/svg">
</g>
<g xmlns="http://www.w3.org/2000/svg">
</g>
<g xmlns="http://www.w3.org/2000/svg">
</g>
<g xmlns="http://www.w3.org/2000/svg">
</g>
<g xmlns="http://www.w3.org/2000/svg">
</g>
<g xmlns="http://www.w3.org/2000/svg">
</g>
<g xmlns="http://www.w3.org/2000/svg">
</g>
<g xmlns="http://www.w3.org/2000/svg">
</g>
<g xmlns="http://www.w3.org/2000/svg">
</g>
<g xmlns="http://www.w3.org/2000/svg">
</g>
<g xmlns="http://www.w3.org/2000/svg">
</g>
<g xmlns="http://www.w3.org/2000/svg">
</g>
<g xmlns="http://www.w3.org/2000/svg">
</g>
<g xmlns="http://www.w3.org/2000/svg">
</g>
</g></svg>
